<svg xmlns="http://www.w3.org/2000/svg" width="125.029" height="26.561" viewBox="0 0 3361 714">
  <defs>
    <style>
      .cls-1 {
        fill: #f89939;
      }

      .cls-1, .cls-2 {
        fill-rule: evenodd;
      }

      .cls-2 {
        fill: #54d7ff;
      }
    </style>
  </defs>
  <path id="Orang" class="cls-1" d="M233.835,372.842C48.575,341.1,49.289,36.074,325.551,116.035c28.743,7.941,58.992,13.451,79.488,21.4s25.183-19.2,6.115-21.4c-20.015-2.837-18.681-25.329,3.057-18.343,11.955,3.83,3.884,2.579,18.343,6.114,13.286,1.316,19.953-16.532,0-21.4-21.247-4.545-21.6-4.789-30.572-6.115-10.053-1.982-15-24.185,6.115-21.4,24.747,6.149,45.6,11.444,58.087,15.286s23.107-16.9,3.057-21.4c0,0-148.9-37.152-162.033-39.744-340.6-78.276-437.693,397.168-88.66,455.527C266.3,476.6,295.883,385.857,233.835,372.842Z"/>
  <path id="blue" class="cls-2" d="M249.8,341.908C434.69,375.761,430.5,680.754,155.17,597.655c-28.65-8.267-58.835-14.122-79.239-22.3s-25.4,18.906-6.358,21.329c19.981,3.065,18.391,25.54-3.266,18.308-11.911-3.966-3.855-2.624-18.273-6.323-13.269-1.467-20.139,16.3-.243,21.4,21.195,4.786,21.542,5.035,30.5,6.462,10.03,2.1,14.723,24.354-6.358,21.33-24.676-6.43-45.462-11.963-57.91-15.947s-23.3,16.636-3.3,21.365c0,0,148.465,38.843,161.571,41.585C511.979,787.007,614.479,312.7,266.132,250.372,218.523,237.788,187.907,328.189,249.8,341.908Z"/>
  <path id="SOFT" class="cls-2" d="M898.533,317.168a119.324,119.324,0,0,0-10.6-45.52,105.212,105.212,0,0,0-26.9-35.691q-17.335-15-42.674-23.277T760.423,204.4q-31.557,0-55.088,7.759t-39.312,21.725a87.232,87.232,0,0,0-23.536,33.363,113.9,113.9,0,0,0-7.759,42.675q0,32.588,14.742,52.5t42.674,32.329a227.221,227.221,0,0,0,40.088,13.708q21.981,5.432,54.055,12.673a158.481,158.481,0,0,1,26.38,8.017q10.341,4.4,16.294,9.828a30.4,30.4,0,0,1,8.276,11.639,39.539,39.539,0,0,1,2.328,13.966q0,23.277-17.328,35.95t-49.4,12.673q-34.66,0-55.089-15.259t-21.467-41.64H626.969q0.508,28.974,11.38,50.433a102.487,102.487,0,0,0,30,35.95q19.131,14.487,45.519,21.467t58.452,6.983q29.992,0,55.088-6.466t43.45-19.915a91.705,91.705,0,0,0,28.45-33.881Q909.4,490.456,909.4,462q0-18.1-4.138-31.553a77.365,77.365,0,0,0-11.38-23.277,71.01,71.01,0,0,0-17.07-16.553,141.355,141.355,0,0,0-21.208-11.9q-19.143-8.79-45.778-15.777T753.7,348.721q-28.976-7.239-41.123-17.07T700.421,305.27q0-19.651,15.518-30t46.036-10.345q32.587,0,49.14,12.931t19.139,39.313h68.279ZM1016.21,481.4q-24.573-28.187-24.569-89.228t24.309-92.591q24.315-31.545,69.83-31.553t69.32,31.553q23.775,31.557,23.79,92.591,0,30.527-7.24,52.761T1151.73,481.4a79.95,79.95,0,0,1-29.74,21.208,94.71,94.71,0,0,1-36.21,6.983Q1040.78,509.59,1016.21,481.4Zm191.39,44.743q42.15-45,42.16-133.971,0-43.959-10.87-78.883t-31.55-59.227a132.97,132.97,0,0,0-51.47-36.984q-30.78-12.669-70.09-12.673-39.84,0-70.35,12.673A139,139,0,0,0,963.709,253.8q-21.216,24.053-32.071,58.709t-10.862,78.107q0,87.421,42.674,133.972t122.33,46.554Q1165.43,571.145,1207.6,526.142Zm288.89-111.729v-60.52H1345.45V275.786h172.77v-60H1273.55V559.247h71.9V414.413h151.04Zm212.08,144.834V275.786h103.97v-60H1533.22v60h103.45V559.247h71.9Z"/>
  <path id="STEPS" class="cls-1" d="M2228.35,317.168a119.364,119.364,0,0,0-10.61-45.52,105.154,105.154,0,0,0-26.9-35.691q-17.325-15-42.67-23.277t-57.93-8.276q-31.56,0-55.09,7.759-23.55,7.758-39.32,21.725a87.228,87.228,0,0,0-23.53,33.363,113.964,113.964,0,0,0-7.76,42.675q0,32.588,14.74,52.5t42.68,32.329a226.963,226.963,0,0,0,40.08,13.708q21.99,5.432,54.06,12.673a158.54,158.54,0,0,1,26.38,8.017q10.335,4.4,16.29,9.828a30.394,30.394,0,0,1,8.28,11.639,39.583,39.583,0,0,1,2.33,13.966q0,23.277-17.33,35.95t-49.4,12.673q-34.665,0-55.09-15.259-20.445-15.252-21.47-41.64h-69.31q0.51,28.974,11.38,50.433a102.484,102.484,0,0,0,30,35.95q19.14,14.487,45.52,21.467t58.45,6.983q30,0,55.09-6.466t43.45-19.915a91.639,91.639,0,0,0,28.45-33.881q10.1-20.427,10.09-48.881,0-18.1-4.14-31.553a77.365,77.365,0,0,0-11.38-23.277,70.9,70.9,0,0,0-17.07-16.553,141.179,141.179,0,0,0-21.21-11.9q-19.14-8.79-45.78-15.777t-56.12-14.224q-28.98-7.239-41.12-17.07-12.165-9.821-12.16-26.381,0-19.651,15.52-30t46.04-10.345q32.58,0,49.14,12.931t19.14,39.313h68.28Zm180,242.079V275.786h103.97v-60H2233v60h103.45V559.247h71.9Zm383.81,0V498.21H2601.29V409.758H2769.4v-60.52H2601.29V275.786h182.6v-60H2531.46V559.247h260.7Zm88.46-183.111V275.269h68.28q31.035,0,44.74,13.966t13.71,35.691q0,22.769-13.71,36.985-13.71,14.232-44.74,14.225h-68.28Zm0,183.111V434.587h79.66q25.335,0,45.51-8.018a103.125,103.125,0,0,0,34.66-22.242,96.047,96.047,0,0,0,22.24-34.14A117.778,117.778,0,0,0,3070.45,327a119.851,119.851,0,0,0-7.76-43.45,106.425,106.425,0,0,0-22.24-35.432,102.024,102.024,0,0,0-34.66-23.795q-20.16-8.535-45.51-8.535H2808.72V559.247h71.9Zm469.16-242.079a119.364,119.364,0,0,0-10.61-45.52,105.154,105.154,0,0,0-26.9-35.691q-17.325-15-42.67-23.277t-57.93-8.276q-31.56,0-55.09,7.759-23.55,7.758-39.31,21.725a87.145,87.145,0,0,0-23.54,33.363,113.964,113.964,0,0,0-7.76,42.675q0,32.588,14.74,52.5t42.68,32.329a226.8,226.8,0,0,0,40.09,13.708q21.975,5.432,54.05,12.673a158.54,158.54,0,0,1,26.38,8.017q10.335,4.4,16.29,9.828a30.394,30.394,0,0,1,8.28,11.639,39.583,39.583,0,0,1,2.33,13.966q0,23.277-17.33,35.95t-49.4,12.673q-34.665,0-55.09-15.259-20.445-15.252-21.46-41.64h-69.32q0.51,28.974,11.38,50.433a102.484,102.484,0,0,0,30,35.95q19.14,14.487,45.52,21.467t58.45,6.983q30,0,55.09-6.466t43.45-19.915a91.639,91.639,0,0,0,28.45-33.881q10.1-20.427,10.09-48.881,0-18.1-4.14-31.553a77.131,77.131,0,0,0-11.38-23.277,70.9,70.9,0,0,0-17.07-16.553,141.179,141.179,0,0,0-21.21-11.9q-19.14-8.79-45.78-15.777t-56.12-14.224q-28.965-7.239-41.12-17.07t-12.16-26.381q0-19.651,15.52-30t46.04-10.345q32.58,0,49.14,12.931,16.545,12.936,19.14,39.313h68.28Z"/>
</svg>
